<?xml version="1.0" standalone="no"?>
<!DOCTYPE svg PUBLIC "-//W3C//DTD SVG 20010904//EN"
 "http://www.w3.org/TR/2001/REC-SVG-20010904/DTD/svg10.dtd">
<svg version="1.0" xmlns="http://www.w3.org/2000/svg"
 width="1474.000000pt" height="1474.000000pt" viewBox="0 0 1474.000000 1474.000000"
 preserveAspectRatio="xMidYMid meet">
<metadata>
Created by potrace 1.11, written by Peter Selinger 2001-2013
</metadata>
<g transform="translate(0.000000,1474.000000) scale(0.100000,-0.100000)"
fill="#000000" stroke="none">
<path d="M7560 13470 c0 -6 -37 -10 -90 -10 -53 0 -90 -4 -90 -10 0 -5 -22
-10 -50 -10 -27 0 -50 -4 -50 -10 0 -5 -18 -10 -40 -10 -22 0 -40 -4 -40 -10
0 -5 -18 -10 -40 -10 -22 0 -40 -4 -40 -10 0 -5 -13 -10 -30 -10 -16 0 -30 -4
-30 -10 0 -5 -9 -10 -20 -10 -11 0 -20 -4 -20 -10 0 -5 -9 -10 -20 -10 -11 0
-20 -4 -20 -10 0 -5 -9 -10 -20 -10 -11 0 -20 -4 -20 -10 0 -6 -60 -10 -160
-10 -100 0 -160 -4 -160 -10 0 -6 -30 -10 -70 -10 -40 0 -70 -4 -70 -10 0 -5
-22 -10 -50 -10 -27 0 -50 -4 -50 -10 0 -5 -22 -10 -50 -10 -27 0 -50 -4 -50
-10 0 -5 -13 -10 -30 -10 -16 0 -30 -4 -30 -10 0 -5 -13 -10 -30 -10 -16 0
-30 -4 -30 -10 0 -5 -13 -10 -30 -10 -16 0 -30 -4 -30 -10 0 -5 -13 -10 -30
-10 -16 0 -30 -4 -30 -10 0 -5 -9 -10 -20 -10 -11 0 -20 -4 -20 -10 0 -5 -9
-10 -20 -10 -11 0 -20 -4 -20 -10 0 -5 -9 -10 -20 -10 -11 0 -20 -4 -20 -10 0
-5 -9 -10 -20 -10 -11 0 -20 -4 -20 -10 0 -5 -9 -10 -20 -10 -11 0 -20 -4 -20
-10 0 -5 -9 -10 -20 -10 -11 0 -20 -4 -20 -10 0 -5 -8 -10 -18 -10 -10 0 -24
-9 -32 -20 -8 -11 -21 -20 -30 -20 -9 0 -22 -9 -30 -20 -8 -11 -21 -20 -28
-20 -7 0 -31 -18 -52 -40 -21 -22 -43 -40 -49 -40 -14 0 -201 -186 -201 -200
0 -6 -27 -38 -60 -70 -33 -32 -60 -65 -60 -72 0 -8 -9 -20 -20 -28 -11 -8 -20
-21 -20 -28 0 -7 -18 -31 -40 -52 -22 -21 -40 -46 -40 -54 0 -9 -4 -16 -10
-16 -5 0 -10 -8 -10 -18 0 -10 -9 -24 -20 -32 -11 -8 -20 -22 -20 -32 0 -10
-4 -18 -10 -18 -5 0 -10 -9 -10 -20 0 -11 -4 -20 -10 -20 -5 0 -10 -9 -10 -20
0 -11 -4 -20 -10 -20 -5 0 -10 -9 -10 -20 0 -11 -4 -20 -10 -20 -5 0 -10 -13
-10 -30 0 -16 -4 -30 -10 -30 -5 0 -10 -13 -10 -30 0 -16 -4 -30 -10 -30 -5 0
-10 -13 -10 -30 0 -16 -4 -30 -10 -30 -5 0 -10 -13 -10 -30 0 -16 -4 -30 -10
-30 -5 0 -10 -18 -10 -40 0 -22 -4 -40 -10 -40 -5 0 -10 -22 -10 -50 0 -27 -4
-50 -10 -50 -5 0 -10 -9 -10 -20 0 -17 -7 -20 -40 -20 -22 0 -40 -4 -40 -10 0
-5 -17 -10 -38 -10 -26 0 -42 -6 -52 -20 -8 -11 -22 -20 -32 -20 -10 0 -18 -4
-18 -10 0 -5 -9 -10 -20 -10 -11 0 -20 -4 -20 -10 0 -5 -7 -10 -15 -10 -20 0
-265 -245 -265 -265 0 -8 -4 -15 -10 -15 -5 0 -10 -7 -10 -16 0 -9 -13 -29
-30 -44 -16 -15 -30 -35 -30 -44 0 -9 -4 -16 -10 -16 -5 0 -10 -9 -10 -20 0
-11 -4 -20 -10 -20 -5 0 -10 -9 -10 -20 0 -11 -4 -20 -10 -20 -5 0 -10 -9 -10
-20 0 -11 -4 -20 -10 -20 -5 0 -10 -9 -10 -20 0 -11 -4 -20 -10 -20 -5 0 -10
-9 -10 -20 0 -11 -4 -20 -10 -20 -5 0 -10 -9 -10 -20 0 -11 -4 -20 -10 -20 -5
0 -10 -9 -10 -20 0 -11 -4 -20 -10 -20 -5 0 -10 -13 -10 -30 0 -16 -4 -30 -10
-30 -5 0 -10 -9 -10 -20 0 -11 -4 -20 -10 -20 -5 0 -10 -13 -10 -30 0 -16 -4
-30 -10 -30 -5 0 -10 -13 -10 -30 0 -16 -4 -30 -10 -30 -5 0 -10 -18 -10 -40
0 -22 -4 -40 -10 -40 -5 0 -10 -9 -10 -20 0 -11 -4 -20 -10 -20 -5 0 -10 -18
-10 -40 0 -22 -4 -40 -10 -40 -5 0 -10 -18 -10 -40 0 -22 -4 -40 -10 -40 -5 0
-10 -18 -10 -40 0 -22 -4 -40 -10 -40 -5 0 -10 -22 -10 -50 0 -27 -4 -50 -10
-50 -5 0 -10 -22 -10 -50 0 -27 -4 -50 -10 -50 -6 0 -10 -30 -10 -70 0 -40 -4
-70 -10 -70 -6 0 -10 -37 -10 -90 0 -53 -4 -90 -10 -90 -6 0 -10 -90 -10 -250
0 -160 4 -250 10 -250 6 0 10 -30 10 -70 0 -40 4 -70 10 -70 6 0 10 -27 10
-60 0 -33 4 -60 10 -60 6 0 10 -22 10 -50 0 -27 5 -50 10 -50 6 0 10 -13 10
-30 0 -16 5 -30 10 -30 6 0 10 -22 10 -50 0 -27 5 -50 10 -50 6 0 10 -9 10
-20 0 -11 5 -20 10 -20 6 0 10 -18 10 -40 0 -22 5 -40 10 -40 6 0 10 -9 10
-20 0 -11 5 -20 10 -20 6 0 10 -47 10 -120 0 -73 4 -120 10 -120 6 0 10 -30
10 -70 0 -40 4 -70 10 -70 6 0 10 -33 10 -80 0 -47 4 -80 10 -80 6 0 10 -22
10 -50 0 -27 5 -50 10 -50 6 0 10 -22 10 -50 0 -27 5 -50 10 -50 6 0 10 -30
10 -70 0 -40 4 -70 10 -70 6 0 10 -30 10 -70 0 -40 4 -70 10 -70 6 0 10 -18
10 -40 0 -22 5 -40 10 -40 6 0 10 -90 10 -250 0 -160 4 -250 10 -250 6 0 10
-33 10 -80 0 -47 4 -80 10 -80 6 0 10 -33 10 -80 0 -47 4 -80 10 -80 6 0 10
-27 10 -60 0 -33 4 -60 10 -60 6 0 10 -22 10 -50 0 -27 5 -50 10 -50 6 0 10
-18 10 -40 0 -22 5 -40 10 -40 6 0 10 -13 10 -30 0 -16 5 -30 10 -30 6 0 10
-13 10 -30 0 -16 5 -30 10 -30 6 0 10 -13 10 -30 0 -16 5 -30 10 -30 6 0 10
-9 10 -20 0 -11 5 -20 10 -20 6 0 10 -13 10 -30 0 -16 5 -30 10 -30 6 0 10 -9
10 -20 0 -11 5 -20 10 -20 6 0 10 -13 10 -30 0 -16 5 -30 10 -30 6 0 10 -9 10
-20 0 -11 5 -20 10 -20 6 0 10 -9 10 -20 0 -11 5 -20 10 -20 6 0 10 -9 10 -20
0 -11 5 -20 10 -20 6 0 10 -13 10 -30 0 -16 5 -30 10 -30 6 0 10 -8 10 -18 0
-10 9 -24 20 -32 11 -8 20 -22 20 -32 0 -10 5 -18 10 -18 6 0 10 -8 10 -18 0
-10 9 -24 20 -32 11 -8 20 -21 20 -30 0 -9 9 -22 20 -30 11 -8 20 -22 20 -32
0 -10 5 -18 10 -18 6 0 10 -9 10 -20 0 -11 5 -20 10 -20 6 0 10 -8 10 -18 0
-10 9 -24 20 -32 11 -8 20 -21 20 -30 0 -9 9 -22 20 -30 11 -8 20 -21 20 -30
0 -9 9 -22 20 -30 11 -8 20 -21 20 -30 0 -9 9 -22 20 -30 11 -8 20 -21 20 -30
0 -9 9 -22 20 -30 11 -8 20 -21 20 -30 0 -9 9 -22 20 -30 11 -8 20 -21 20 -30
0 -9 9 -22 20 -30 11 -8 20 -21 20 -28 0 -8 14 -27 30 -42 17 -15 30 -33 30
-40 0 -7 14 -25 30 -40 17 -15 30 -33 30 -40 0 -6 23 -33 50 -60 28 -27 50
-54 50 -59 0 -15 207 -221 221 -221 6 0 24 -13 39 -30 15 -16 34 -30 42 -30 7
0 20 -9 28 -20 8 -11 22 -20 32 -20 10 0 18 -4 18 -10 0 -5 8 -10 18 -10 10 0
24 -9 32 -20 8 -11 22 -20 32 -20 10 0 18 -4 18 -10 0 -5 9 -10 20 -10 11 0
20 -4 20 -10 0 -5 8 -10 18 -10 10 0 24 -9 32 -20 8 -11 26 -20 40 -20 14 0
32 -9 40 -20 8 -11 22 -20 32 -20 10 0 18 -4 18 -10 0 -5 14 -10 30 -10 17 0
30 -4 30 -10 0 -5 14 -10 30 -10 17 0 30 -4 30 -10 0 -5 9 -10 20 -10 11 0 20
-4 20 -10 0 -5 9 -10 20 -10 11 0 20 -4 20 -10 0 -5 9 -10 20 -10 11 0 20 -4
20 -10 0 -5 14 -10 30 -10 17 0 30 -4 30 -10 0 -5 7 -10 16 -10 23 0 44 -25
44 -54 0 -14 5 -26 10 -26 6 0 10 -18 10 -40 0 -22 5 -40 10 -40 6 0 10 -53
10 -140 0 -133 -1 -140 -20 -140 -11 0 -20 -4 -20 -10 0 -5 -8 -10 -18 -10
-10 0 -24 -9 -32 -20 -8 -12 -26 -20 -42 -20 -15 0 -28 -4 -28 -10 0 -5 -9
-10 -20 -10 -11 0 -20 -4 -20 -10 0 -5 -9 -10 -20 -10 -11 0 -20 -4 -20 -10 0
-5 -9 -10 -20 -10 -11 0 -20 -4 -20 -10 0 -5 -9 -10 -20 -10 -11 0 -20 -4 -20
-10 0 -5 -9 -10 -20 -10 -11 0 -20 -4 -20 -10 0 -5 -9 -10 -20 -10 -11 0 -20
-4 -20 -10 0 -5 -22 -10 -50 -10 -27 0 -50 -4 -50 -10 0 -5 -13 -10 -30 -10
-16 0 -30 -4 -30 -10 0 -5 -18 -10 -40 -10 -22 0 -40 -4 -40 -10 0 -5 -13 -10
-30 -10 -16 0 -30 -4 -30 -10 0 -5 -13 -10 -30 -10 -16 0 -30 -4 -30 -10 0 -5
-13 -10 -30 -10 -16 0 -30 -4 -30 -10 0 -5 -13 -10 -30 -10 -16 0 -30 -4 -30
-10 0 -5 -13 -10 -30 -10 -16 0 -30 -4 -30 -10 0 -5 -13 -10 -30 -10 -16 0
-30 -4 -30 -10 0 -5 -13 -10 -30 -10 -16 0 -30 -4 -30 -10 0 -5 -13 -10 -30
-10 -16 0 -30 -4 -30 -10 0 -5 -13 -10 -30 -10 -16 0 -30 -4 -30 -10 0 -5 -13
-10 -30 -10 -16 0 -30 -4 -30 -10 0 -5 -9 -10 -20 -10 -11 0 -20 -4 -20 -10 0
-5 -13 -10 -30 -10 -16 0 -30 -4 -30 -10 0 -5 -13 -10 -30 -10 -16 0 -30 -4
-30 -10 0 -5 -9 -10 -20 -10 -11 0 -20 -4 -20 -10 0 -5 -9 -10 -20 -10 -11 0
-20 -4 -20 -10 0 -5 -13 -10 -30 -10 -16 0 -30 -4 -30 -10 0 -5 -9 -10 -20
-10 -11 0 -20 -4 -20 -10 0 -5 -9 -10 -20 -10 -11 0 -20 -4 -20 -10 0 -5 -13
-10 -30 -10 -16 0 -30 -4 -30 -10 0 -5 -9 -10 -20 -10 -11 0 -20 -4 -20 -10 0
-5 -9 -10 -20 -10 -11 0 -20 -4 -20 -10 0 -5 -9 -10 -20 -10 -11 0 -20 -4 -20
-10 0 -5 -9 -10 -20 -10 -11 0 -20 -4 -20 -10 0 -5 -9 -10 -20 -10 -11 0 -20
-4 -20 -10 0 -5 -9 -10 -20 -10 -11 0 -20 -4 -20 -10 0 -5 -9 -10 -20 -10 -11
0 -20 -4 -20 -10 0 -5 -9 -10 -20 -10 -11 0 -20 -4 -20 -10 0 -5 -9 -10 -20
-10 -11 0 -20 -4 -20 -10 0 -5 -9 -10 -20 -10 -11 0 -20 -4 -20 -10 0 -5 -9
-10 -20 -10 -11 0 -20 -4 -20 -10 0 -5 -9 -10 -20 -10 -11 0 -20 -4 -20 -10 0
-5 -8 -10 -18 -10 -10 0 -24 -9 -32 -20 -8 -11 -22 -20 -32 -20 -10 0 -18 -4
-18 -10 0 -5 -8 -10 -18 -10 -10 0 -24 -9 -32 -20 -8 -11 -22 -20 -32 -20 -10
0 -18 -4 -18 -10 0 -5 -8 -10 -18 -10 -10 0 -24 -9 -32 -20 -8 -11 -21 -20
-30 -20 -9 0 -22 -9 -30 -20 -8 -11 -21 -20 -30 -20 -9 0 -22 -9 -30 -20 -8
-11 -21 -20 -28 -20 -7 0 -31 -18 -52 -40 -21 -22 -43 -40 -49 -40 -15 0 -281
-266 -281 -281 0 -6 -18 -28 -40 -49 -22 -21 -40 -45 -40 -52 0 -7 -9 -20 -20
-28 -11 -8 -20 -22 -20 -32 0 -10 -4 -18 -10 -18 -5 0 -10 -9 -10 -20 0 -11
-4 -20 -10 -20 -5 0 -10 -9 -10 -20 0 -11 -4 -20 -10 -20 -5 0 -10 -9 -10 -20
0 -11 -4 -20 -10 -20 -5 0 -10 -9 -10 -20 0 -11 -4 -20 -10 -20 -5 0 -10 -13
-10 -30 0 -16 -4 -30 -10 -30 -5 0 -10 -9 -10 -20 0 -11 -4 -20 -10 -20 -5 0
-10 -9 -10 -20 0 -11 -4 -20 -10 -20 -5 0 -10 -13 -10 -30 0 -16 -4 -30 -10
-30 -18 0 -11 -55 10 -70 11 -8 20 -21 20 -30 0 -9 9 -22 20 -30 11 -8 20 -20
20 -28 0 -16 24 -42 40 -42 17 0 40 26 40 44 0 9 8 16 20 16 13 0 20 -7 20
-20 0 -13 7 -20 18 -20 10 0 24 -9 32 -20 8 -11 22 -20 32 -20 10 0 18 -4 18
-10 0 -5 8 -10 18 -10 10 0 24 -9 32 -20 8 -11 22 -20 32 -20 10 0 18 -4 18
-10 0 -5 9 -10 20 -10 11 0 20 -4 20 -10 0 -5 14 -10 30 -10 17 0 30 -4 30
-10 0 -5 8 -10 18 -10 10 0 24 -9 32 -20 8 -12 26 -20 42 -20 15 0 28 -4 28
-10 0 -5 14 -10 30 -10 17 0 30 -4 30 -10 0 -5 9 -10 20 -10 11 0 20 -4 20
-10 0 -5 14 -10 30 -10 17 0 30 -4 30 -10 0 -5 14 -10 30 -10 17 0 30 -4 30
-10 0 -5 14 -10 30 -10 17 0 30 -4 30 -10 0 -5 14 -10 30 -10 17 0 30 -4 30
-10 0 -5 18 -10 40 -10 22 0 40 -4 40 -10 0 -5 18 -10 40 -10 22 0 40 -4 40
-10 0 -5 18 -10 40 -10 22 0 40 -4 40 -10 0 -5 18 -10 40 -10 22 0 40 -4 40
-10 0 -5 18 -10 40 -10 22 0 40 -4 40 -10 0 -6 27 -10 60 -10 33 0 60 -4 60
-10 0 -6 27 -10 60 -10 33 0 60 -4 60 -10 0 -6 30 -10 70 -10 40 0 70 -4 70
-10 0 -6 30 -10 70 -10 40 0 70 -4 70 -10 0 -6 30 -10 70 -10 40 0 70 -4 70
-10 0 -6 37 -10 90 -10 53 0 90 -4 90 -10 0 -6 40 -10 100 -10 60 0 100 -4
100 -10 0 -6 33 -10 80 -10 47 0 80 -4 80 -10 0 -6 40 -10 100 -10 60 0 100
-4 100 -10 0 -6 50 -10 130 -10 80 0 130 -4 130 -10 0 -6 47 -10 120 -10 73 0
120 -4 120 -10 0 -6 57 -10 150 -10 93 0 150 -4 150 -10 0 -6 80 -10 220 -10
140 0 220 -4 220 -10 0 -7 167 -10 480 -10 313 0 480 3 480 10 0 6 87 10 240
10 153 0 240 4 240 10 0 6 53 10 140 10 87 0 140 4 140 10 0 6 40 10 100 10
60 0 100 4 100 10 0 6 37 10 90 10 53 0 90 4 90 10 0 6 37 10 90 10 53 0 90 4
90 10 0 6 27 10 60 10 33 0 60 4 60 10 0 6 30 10 70 10 40 0 70 4 70 10 0 6
23 10 50 10 28 0 50 5 50 10 0 6 33 10 80 10 47 0 80 4 80 10 0 6 14 10 30 10
17 0 30 5 30 10 0 6 23 10 50 10 28 0 50 5 50 10 0 6 18 10 40 10 22 0 40 5
40 10 0 6 23 10 50 10 28 0 50 5 50 10 0 6 18 10 40 10 22 0 40 5 40 10 0 6
23 10 50 10 28 0 50 5 50 10 0 6 18 10 40 10 22 0 40 5 40 10 0 6 18 10 40 10
22 0 40 5 40 10 0 6 18 10 40 10 22 0 40 5 40 10 0 6 23 10 50 10 28 0 50 5
50 10 0 6 14 10 30 10 17 0 30 5 30 10 0 6 23 10 50 10 28 0 50 5 50 10 0 6
14 10 30 10 17 0 30 5 30 10 0 6 14 10 30 10 17 0 30 5 30 10 0 6 14 10 30 10
17 0 30 5 30 10 0 6 18 10 40 10 22 0 40 5 40 10 0 6 9 10 20 10 11 0 20 5 20
10 0 6 14 10 30 10 17 0 30 5 30 10 0 6 14 10 30 10 17 0 30 5 30 10 0 6 14
10 30 10 17 0 30 5 30 10 0 6 9 10 20 10 11 0 20 5 20 10 0 6 14 10 30 10 17
0 30 5 30 10 0 6 9 10 20 10 11 0 20 5 20 10 0 6 9 10 20 10 11 0 20 5 20 10
0 6 14 10 30 10 17 0 30 5 30 10 0 6 9 10 20 10 11 0 20 5 20 10 0 6 9 10 20
10 11 0 20 -7 20 -15 0 -20 45 -65 65 -65 8 0 15 -4 15 -10 0 -5 9 -10 20 -10
11 0 20 -4 20 -10 0 -5 9 -10 19 -10 11 0 22 -6 25 -12 5 -10 7 -10 12 0 3 6
14 12 25 12 10 0 19 5 19 10 0 6 8 10 18 10 10 0 24 9 32 20 8 11 22 20 32 20
10 0 18 5 18 10 0 6 7 10 16 10 22 0 53 32 36 38 -6 2 -12 12 -12 23 0 10 -4
19 -10 19 -5 0 -10 8 -10 18 0 10 -9 24 -20 32 -11 8 -20 22 -20 32 0 10 -4
18 -10 18 -5 0 -10 8 -10 18 0 10 -9 24 -20 32 -11 8 -20 21 -20 30 0 9 -9 22
-20 30 -11 8 -20 22 -20 32 0 10 -4 18 -10 18 -5 0 -10 7 -10 16 0 9 -14 29
-30 44 -17 15 -30 33 -30 40 0 7 -14 25 -30 40 -16 15 -30 33 -30 40 0 7 -14
25 -30 40 -16 15 -30 33 -30 40 0 7 -13 25 -30 40 -16 15 -30 33 -30 40 0 16
-26 40 -44 40 -9 0 -16 7 -16 15 0 17 -204 225 -221 225 -5 0 -32 23 -59 50
-27 28 -54 50 -60 50 -7 0 -25 14 -40 30 -15 17 -34 30 -42 30 -7 0 -20 9 -28
20 -8 11 -22 20 -32 20 -10 0 -18 5 -18 10 0 6 -8 10 -18 10 -10 0 -24 9 -32
20 -8 11 -21 20 -30 20 -9 0 -22 9 -30 20 -8 11 -22 20 -32 20 -10 0 -18 5
-18 10 0 6 -9 10 -20 10 -11 0 -20 5 -20 10 0 6 -9 10 -20 10 -11 0 -20 5 -20
10 0 6 -9 10 -20 10 -11 0 -20 5 -20 10 0 6 -9 10 -20 10 -11 0 -20 5 -20 10
0 6 -9 10 -20 10 -11 0 -20 5 -20 10 0 6 -9 10 -20 10 -11 0 -20 5 -20 10 0 6
-9 10 -20 10 -11 0 -20 5 -20 10 0 6 -13 10 -30 10 -16 0 -30 5 -30 10 0 6 -9
10 -20 10 -11 0 -20 5 -20 10 0 6 -9 10 -20 10 -11 0 -20 5 -20 10 0 6 -9 10
-20 10 -11 0 -20 5 -20 10 0 6 -13 10 -30 10 -16 0 -30 5 -30 10 0 6 -9 10
-20 10 -11 0 -20 5 -20 10 0 6 -9 10 -20 10 -11 0 -20 5 -20 10 0 6 -9 10 -20
10 -11 0 -20 5 -20 10 0 6 -9 10 -20 10 -11 0 -20 5 -20 10 0 6 -9 10 -20 10
-11 0 -20 5 -20 10 0 6 -13 10 -30 10 -16 0 -30 5 -30 10 0 6 -9 10 -20 10
-11 0 -20 5 -20 10 0 6 -9 10 -20 10 -11 0 -20 5 -20 10 0 6 -13 10 -30 10
-16 0 -30 5 -30 10 0 6 -9 10 -20 10 -11 0 -20 5 -20 10 0 6 -9 10 -20 10 -11
0 -20 5 -20 10 0 6 -13 10 -30 10 -16 0 -30 5 -30 10 0 6 -9 10 -20 10 -11 0
-20 5 -20 10 0 6 -13 10 -30 10 -16 0 -30 5 -30 10 0 6 -9 10 -20 10 -11 0
-20 5 -20 10 0 6 -13 10 -30 10 -16 0 -30 5 -30 10 0 6 -13 10 -30 10 -16 0
-30 5 -30 10 0 6 -13 10 -30 10 -16 0 -30 5 -30 10 0 6 -13 10 -30 10 -16 0
-30 5 -30 10 0 6 -13 10 -30 10 -16 0 -30 5 -30 10 0 6 -18 10 -40 10 -22 0
-40 5 -40 10 0 6 -13 10 -30 10 -16 0 -30 5 -30 10 0 6 -18 10 -40 10 -22 0
-40 5 -40 10 0 6 -18 10 -40 10 -22 0 -40 5 -40 10 0 6 -22 10 -50 10 -27 0
-50 5 -50 10 0 6 -33 10 -80 10 -47 0 -80 4 -80 10 0 6 -26 10 -58 10 -46 0
-60 4 -72 20 -11 15 -26 20 -62 20 -26 0 -48 -4 -48 -10 0 -5 -4 -10 -10 -10
-6 0 -10 60 -10 160 0 100 4 160 10 160 6 0 10 33 10 80 0 47 4 80 10 80 6 0
10 30 10 70 0 40 4 70 10 70 6 0 10 7 10 16 0 20 24 44 44 44 9 0 16 5 16 10
0 6 9 10 20 10 11 0 20 5 20 10 0 6 9 10 20 10 11 0 20 5 20 10 0 6 8 10 18
10 10 0 24 9 32 20 8 11 26 20 40 20 14 0 32 9 40 20 8 11 22 20 32 20 10 0
18 5 18 10 0 6 9 10 20 10 11 0 20 5 20 10 0 6 8 10 18 10 10 0 24 9 32 20 8
11 22 20 32 20 10 0 18 5 18 10 0 6 9 10 20 10 11 0 20 5 20 10 0 6 9 10 20
10 11 0 20 5 20 10 0 6 8 10 18 10 10 0 24 9 32 20 8 11 21 20 30 20 9 0 22 9
30 20 8 11 21 20 30 20 9 0 22 9 30 20 8 11 21 20 30 20 9 0 22 9 30 20 8 11
21 20 28 20 8 0 27 14 42 30 15 17 34 30 42 30 7 0 20 9 28 20 8 11 21 20 28
20 7 0 31 18 52 40 21 22 43 40 49 40 15 0 101 86 101 100 0 6 27 38 60 70 33
32 60 64 60 70 0 6 18 29 40 50 22 21 40 45 40 52 0 7 9 20 20 28 11 8 20 21
20 30 0 9 9 22 20 30 11 8 20 21 20 30 0 9 9 22 20 30 11 8 20 22 20 32 0 10
5 18 10 18 6 0 10 9 10 20 0 11 5 20 10 20 6 0 10 8 10 18 0 10 9 24 20 32 12
8 20 26 20 42 0 15 5 28 10 28 6 0 10 9 10 20 0 11 5 20 10 20 6 0 10 9 10 20
0 11 5 20 10 20 6 0 10 9 10 20 0 11 5 20 10 20 6 0 10 9 10 20 0 11 5 20 10
20 6 0 10 14 10 30 0 17 5 30 10 30 6 0 10 14 10 30 0 17 5 30 10 30 6 0 10 9
10 20 0 11 5 20 10 20 6 0 10 18 10 40 0 22 5 40 10 40 6 0 10 14 10 30 0 17
5 30 10 30 6 0 10 14 10 30 0 17 5 30 10 30 6 0 10 14 10 30 0 28 2 30 40 30
22 0 40 -4 40 -10 0 -6 47 -10 120 -10 73 0 120 4 120 10 0 6 9 10 20 10 11 0
20 5 20 10 0 6 8 10 18 10 10 0 24 9 32 20 8 11 20 20 28 20 16 0 82 65 82 81
0 6 14 24 30 39 17 15 30 35 30 44 0 9 5 16 10 16 6 0 10 8 10 18 0 10 9 24
20 32 11 8 20 22 20 32 0 10 5 18 10 18 6 0 10 9 10 20 0 11 5 20 10 20 6 0
10 9 10 20 0 11 5 20 10 20 6 0 10 9 10 20 0 11 5 20 10 20 6 0 10 14 10 30 0
17 5 30 10 30 6 0 10 14 10 30 0 17 5 30 10 30 6 0 10 14 10 30 0 17 5 30 10
30 6 0 10 14 10 30 0 17 5 30 10 30 6 0 10 30 10 70 0 40 4 70 10 70 6 0 10
63 10 170 0 107 -4 170 -10 170 -5 0 -10 23 -10 50 0 28 -4 50 -10 50 -5 0
-10 18 -10 40 0 22 -4 40 -10 40 -5 0 -10 18 -10 40 0 22 -4 40 -10 40 -5 0
-10 14 -10 30 0 17 -4 30 -10 30 -5 0 -10 14 -10 30 0 17 -4 30 -10 30 -5 0
-10 9 -10 20 0 11 -4 20 -10 20 -5 0 -10 8 -10 18 0 10 -9 24 -20 32 -16 12
-20 26 -20 72 0 32 4 58 10 58 6 0 10 18 10 40 0 22 5 40 10 40 6 0 10 18 10
40 0 22 5 40 10 40 6 0 10 23 10 50 0 28 5 50 10 50 6 0 10 18 10 40 0 22 5
40 10 40 6 0 10 23 10 50 0 28 5 50 10 50 6 0 10 27 10 60 0 33 4 60 10 60 6
0 10 27 10 60 0 33 4 60 10 60 6 0 10 53 10 140 0 87 4 140 10 140 6 0 10 130
10 370 0 240 -4 370 -10 370 -6 0 -10 53 -10 140 0 87 -4 140 -10 140 -6 0
-10 40 -10 100 0 60 -4 100 -10 100 -6 0 -10 27 -10 60 0 33 -4 60 -10 60 -6
0 -10 27 -10 60 0 33 -4 60 -10 60 -5 0 -10 23 -10 50 0 28 -4 50 -10 50 -5 0
-10 23 -10 50 0 28 -4 50 -10 50 -5 0 -10 14 -10 30 0 17 -4 30 -10 30 -5 0
-10 14 -10 30 0 17 -4 30 -10 30 -5 0 -10 14 -10 30 0 17 -4 30 -10 30 -5 0
-10 14 -10 30 0 17 -4 30 -10 30 -5 0 -10 14 -10 30 0 17 -4 30 -10 30 -5 0
-10 18 -10 40 0 22 -4 40 -10 40 -5 0 -10 9 -10 20 0 11 -4 20 -10 20 -5 0
-10 14 -10 30 0 17 -4 30 -10 30 -5 0 -10 9 -10 20 0 11 -4 20 -10 20 -5 0
-10 9 -10 20 0 11 -4 20 -10 20 -5 0 -10 9 -10 20 0 11 -4 20 -10 20 -5 0 -10
8 -10 18 0 10 -9 24 -20 32 -11 8 -20 22 -20 32 0 10 -4 18 -10 18 -5 0 -10 7
-10 16 0 9 -13 29 -30 44 -16 15 -30 33 -30 40 0 6 -18 29 -40 50 -26 25 -40
47 -40 64 0 14 -4 26 -10 26 -5 0 -10 9 -10 20 0 11 -4 20 -10 20 -5 0 -10 9
-10 20 0 11 -4 20 -10 20 -5 0 -10 14 -10 30 0 17 -4 30 -10 30 -5 0 -10 9
-10 20 0 11 -4 20 -10 20 -5 0 -10 14 -10 30 0 17 -4 30 -10 30 -5 0 -10 9
-10 20 0 11 -4 20 -10 20 -5 0 -10 9 -10 20 0 11 -4 20 -10 20 -5 0 -10 9 -10
20 0 11 -4 20 -10 20 -5 0 -10 9 -10 20 0 11 -4 20 -10 20 -5 0 -10 9 -10 20
0 11 -4 20 -10 20 -5 0 -10 9 -10 20 0 11 -4 20 -10 20 -5 0 -10 9 -10 20 0
11 -4 20 -10 20 -5 0 -10 9 -10 20 0 11 -4 20 -10 20 -5 0 -10 9 -10 20 0 11
-4 20 -10 20 -5 0 -10 7 -10 16 0 8 -18 33 -40 54 -22 21 -40 43 -40 49 0 15
-166 181 -181 181 -6 0 -28 18 -49 40 -21 22 -46 40 -54 40 -9 0 -16 5 -16 10
0 6 -9 10 -20 10 -11 0 -20 5 -20 10 0 6 -8 10 -18 10 -10 0 -24 9 -32 20 -8
11 -21 20 -30 20 -9 0 -22 9 -30 20 -8 11 -22 20 -32 20 -10 0 -18 5 -18 10 0
6 -9 10 -20 10 -11 0 -20 5 -20 10 0 6 -8 10 -18 10 -10 0 -24 9 -32 20 -8 11
-22 20 -32 20 -10 0 -18 5 -18 10 0 6 -8 10 -18 10 -10 0 -24 9 -32 20 -8 11
-22 20 -32 20 -10 0 -18 5 -18 10 0 6 -8 10 -18 10 -10 0 -24 9 -32 20 -8 11
-22 20 -32 20 -10 0 -18 5 -18 10 0 6 -8 10 -18 10 -10 0 -24 9 -32 20 -8 11
-20 20 -28 20 -7 0 -48 36 -92 80 -44 44 -86 80 -95 80 -8 0 -15 9 -15 20 0
13 -7 20 -18 20 -10 0 -24 9 -32 20 -8 11 -21 20 -28 20 -8 0 -27 14 -42 30
-15 17 -35 30 -44 30 -9 0 -16 5 -16 10 0 6 -8 10 -18 10 -10 0 -24 9 -32 20
-8 11 -21 20 -30 20 -9 0 -22 9 -30 20 -8 12 -26 20 -42 20 -15 0 -28 5 -28
10 0 6 -9 10 -20 10 -11 0 -20 5 -20 10 0 6 -9 10 -20 10 -11 0 -20 5 -20 10
0 6 -9 10 -20 10 -11 0 -20 5 -20 10 0 6 -13 10 -30 10 -16 0 -30 5 -30 10 0
6 -9 10 -20 10 -11 0 -20 5 -20 10 0 6 -18 10 -40 10 -22 0 -40 5 -40 10 0 6
-13 10 -30 10 -16 0 -30 5 -30 10 0 6 -18 10 -40 10 -22 0 -40 5 -40 10 0 6
-22 10 -50 10 -27 0 -50 5 -50 10 0 6 -22 10 -50 10 -27 0 -50 5 -50 10 0 6
-33 10 -80 10 -47 0 -80 4 -80 10 0 6 -77 10 -210 10 -133 0 -210 -4 -210 -10z
m-1280 -2120 c0 -5 23 -10 50 -10 28 0 50 -4 50 -10 0 -5 18 -10 40 -10 22 0
40 -4 40 -10 0 -5 14 -10 30 -10 17 0 30 -4 30 -10 0 -5 14 -10 30 -10 17 0
30 -4 30 -10 0 -5 9 -10 20 -10 11 0 20 -4 20 -10 0 -5 9 -10 20 -10 11 0 20
-4 20 -10 0 -5 9 -10 20 -10 11 0 20 -4 20 -10 0 -5 14 -10 30 -10 17 0 30 -4
30 -10 0 -5 8 -10 18 -10 10 0 24 -9 32 -20 8 -11 22 -20 32 -20 10 0 18 -4
18 -10 0 -5 8 -10 18 -10 10 0 24 -9 32 -20 8 -11 21 -20 28 -20 8 0 27 -13
42 -30 15 -16 33 -30 40 -30 7 0 25 -13 40 -30 15 -16 33 -30 39 -30 16 0 281
-267 281 -283 0 -7 9 -19 20 -27 11 -8 20 -22 20 -32 0 -10 5 -18 10 -18 6 0
10 14 10 30 0 17 -4 30 -10 30 -5 0 -10 18 -10 40 0 22 -4 40 -10 40 -5 0 -10
14 -10 30 0 17 -4 30 -10 30 -5 0 -10 9 -10 20 0 11 -4 20 -10 20 -5 0 -10 9
-10 20 0 11 -4 20 -10 20 -5 0 -10 9 -10 20 0 11 -4 20 -10 20 -5 0 -10 9 -10
20 0 11 -4 20 -10 20 -5 0 -10 8 -10 18 0 10 -9 24 -20 32 -11 8 -20 21 -20
28 0 8 -13 27 -30 42 -26 24 -41 60 -24 60 3 0 27 -22 54 -50 27 -27 56 -50
64 -50 9 0 16 -9 16 -20 0 -11 7 -20 15 -20 9 0 51 -36 95 -80 44 -44 86 -80
95 -80 8 0 15 -9 15 -20 0 -13 7 -20 20 -20 13 0 20 -7 20 -20 0 -11 7 -20 16
-20 8 0 37 -22 64 -50 27 -27 55 -50 62 -50 8 0 20 -9 28 -20 8 -11 22 -20 32
-20 10 0 18 -4 18 -10 0 -5 8 -10 18 -10 10 0 24 -9 32 -20 8 -11 22 -20 32
-20 10 0 18 -4 18 -10 0 -5 9 -10 20 -10 11 0 20 -4 20 -10 0 -5 14 -10 30
-10 17 0 30 -4 30 -10 0 -5 9 -10 20 -10 11 0 20 -4 20 -10 0 -5 14 -10 30
-10 17 0 30 -4 30 -10 0 -5 18 -10 40 -10 22 0 40 -4 40 -10 0 -6 37 -10 90
-10 53 0 90 4 90 10 0 6 -8 10 -18 10 -10 0 -24 9 -32 20 -8 11 -20 20 -28 20
-7 0 -53 41 -102 90 -49 50 -96 90 -105 90 -8 0 -15 7 -15 16 0 8 -27 42 -60
74 -33 32 -60 66 -60 74 0 9 -9 16 -20 16 -11 0 -20 7 -20 15 0 20 -265 285
-285 285 -8 0 -15 5 -15 10 0 6 14 10 30 10 17 0 30 -4 30 -10 0 -5 9 -10 20
-10 11 0 20 -4 20 -10 0 -5 9 -10 20 -10 11 0 20 -4 20 -10 0 -5 13 -10 28
-10 16 0 34 -8 42 -20 8 -11 26 -20 40 -20 14 0 32 -9 40 -20 8 -11 22 -20 32
-20 10 0 18 -4 18 -10 0 -5 9 -10 20 -10 11 0 20 -4 20 -10 0 -5 8 -10 18 -10
10 0 24 -9 32 -20 8 -11 21 -20 30 -20 9 0 22 -9 30 -20 8 -11 22 -20 32 -20
10 0 18 -4 18 -10 0 -5 7 -10 16 -10 9 0 29 -13 44 -30 15 -16 35 -30 44 -30
9 0 16 -4 16 -10 0 -5 7 -10 16 -10 9 0 29 -13 44 -30 15 -16 33 -30 40 -30 6
0 29 -18 50 -40 21 -22 43 -40 49 -40 17 0 181 -168 181 -185 0 -8 5 -15 10
-15 6 0 10 18 10 40 0 22 -4 40 -10 40 -15 0 -13 117 3 124 10 5 10 7 0 12 -7
3 -13 19 -13 35 0 43 24 37 80 -21 27 -27 54 -50 60 -50 6 0 38 -27 70 -60 32
-33 64 -60 70 -60 7 0 25 -13 40 -30 15 -16 33 -30 40 -30 6 0 38 -27 70 -60
32 -33 64 -60 70 -60 6 0 46 -36 90 -80 44 -44 86 -80 95 -80 8 0 15 -7 15
-16 0 -8 18 -33 40 -54 22 -21 40 -45 40 -52 0 -7 9 -20 20 -28 11 -8 20 -21
20 -30 0 -9 9 -22 20 -30 11 -8 20 -22 20 -32 0 -10 5 -18 10 -18 6 0 10 -18
10 -40 0 -22 5 -40 10 -40 6 0 10 9 10 20 0 11 5 20 10 20 6 0 10 14 10 30 0
17 5 30 10 30 6 0 10 -27 10 -60 0 -33 -4 -60 -10 -60 -5 0 -10 -9 -10 -20 0
-11 7 -20 15 -20 20 0 85 65 85 85 0 8 5 15 10 15 6 0 10 9 10 20 0 11 5 20
10 20 6 0 10 -13 10 -30 0 -23 4 -30 20 -30 16 0 20 7 20 30 0 17 5 30 10 30
6 0 10 9 10 20 0 11 5 20 10 20 6 0 10 18 10 40 0 22 5 40 10 40 6 0 10 30 10
70 0 40 4 70 10 70 6 0 10 14 10 30 0 17 5 30 10 30 6 0 10 -13 10 -30 0 -16
5 -30 10 -30 6 0 10 -9 10 -20 0 -11 5 -20 10 -20 6 0 10 -9 10 -20 0 -11 5
-20 10 -20 6 0 10 -9 10 -20 0 -11 5 -20 10 -20 6 0 10 -9 10 -20 0 -11 5 -20
10 -20 6 0 10 -13 10 -30 0 -16 5 -30 10 -30 6 0 10 -13 10 -30 0 -16 5 -30
10 -30 6 0 10 -9 10 -20 0 -11 5 -20 10 -20 6 0 10 -13 10 -30 0 -16 5 -30 10
-30 6 0 10 -13 10 -30 0 -16 5 -30 10 -30 6 0 10 -9 10 -20 0 -11 5 -20 10
-20 6 0 10 -13 10 -30 0 -16 5 -30 10 -30 6 0 10 -13 10 -30 0 -16 5 -30 10
-30 6 0 10 -22 10 -50 0 -27 5 -50 10 -50 6 0 10 -22 10 -50 0 -27 5 -50 10
-50 6 0 10 -27 10 -60 0 -33 4 -60 10 -60 6 0 10 -40 10 -100 0 -60 4 -100 10
-100 6 0 10 -40 10 -100 0 -60 4 -100 10 -100 6 0 10 -27 10 -60 0 -33 4 -60
10 -60 6 0 10 -30 10 -70 0 -40 4 -70 10 -70 6 0 10 -22 10 -50 0 -27 5 -50
10 -50 6 0 10 -22 10 -50 0 -27 5 -50 10 -50 7 0 10 -190 10 -550 0 -360 -3
-550 -10 -550 -6 0 -10 -53 -10 -140 0 -87 -4 -140 -10 -140 -6 0 -10 -40 -10
-100 0 -60 -4 -100 -10 -100 -6 0 -10 -30 -10 -70 0 -40 -4 -70 -10 -70 -5 0
-10 -22 -10 -50 0 -27 -4 -50 -10 -50 -6 0 -10 -27 -10 -60 0 -33 -4 -60 -10
-60 -5 0 -10 -18 -10 -40 0 -22 -4 -40 -10 -40 -5 0 -10 -18 -10 -40 0 -22 -4
-40 -10 -40 -5 0 -10 -18 -10 -40 0 -22 -4 -40 -10 -40 -5 0 -10 -13 -10 -30
0 -16 -4 -30 -10 -30 -5 0 -10 -13 -10 -30 0 -16 -4 -30 -10 -30 -5 0 -10 -13
-10 -30 0 -16 -4 -30 -10 -30 -5 0 -10 -13 -10 -30 0 -16 -4 -30 -10 -30 -5 0
-10 -13 -10 -30 0 -16 -4 -30 -10 -30 -5 0 -10 -13 -10 -30 0 -16 -4 -30 -10
-30 -5 0 -10 -13 -10 -30 0 -16 -4 -30 -10 -30 -5 0 -10 -9 -10 -20 0 -11 -4
-20 -10 -20 -5 0 -10 -13 -10 -28 0 -16 -8 -34 -20 -42 -11 -8 -20 -22 -20
-32 0 -10 -4 -18 -10 -18 -5 0 -10 -13 -10 -30 0 -16 -4 -30 -10 -30 -5 0 -10
-8 -10 -18 0 -10 -9 -24 -20 -32 -11 -8 -20 -21 -20 -30 0 -9 -9 -22 -20 -30
-11 -8 -20 -21 -20 -30 0 -9 -9 -22 -20 -30 -11 -8 -20 -21 -20 -28 0 -8 -13
-27 -30 -42 -16 -15 -30 -33 -30 -40 0 -6 -22 -33 -50 -60 -28 -27 -50 -54
-50 -60 0 -14 -106 -120 -120 -120 -6 0 -33 -22 -60 -50 -27 -27 -54 -50 -60
-50 -6 0 -29 -18 -50 -40 -21 -22 -46 -40 -54 -40 -9 0 -16 -4 -16 -10 0 -5
-8 -10 -18 -10 -10 0 -24 -9 -32 -20 -8 -11 -21 -20 -28 -20 -8 0 -27 -13 -42
-30 -15 -16 -35 -30 -44 -30 -9 0 -16 -4 -16 -10 0 -5 -9 -10 -20 -10 -11 0
-20 -4 -20 -10 0 -5 -8 -10 -18 -10 -10 0 -24 -9 -32 -20 -8 -11 -22 -20 -32
-20 -10 0 -18 -4 -18 -10 0 -5 -9 -10 -20 -10 -11 0 -20 -4 -20 -10 0 -5 -9
-10 -20 -10 -11 0 -20 -4 -20 -10 0 -5 -8 -10 -18 -10 -10 0 -24 -9 -32 -20
-8 -11 -26 -20 -40 -20 -14 0 -32 -9 -40 -20 -8 -11 -22 -20 -32 -20 -10 0
-18 -4 -18 -10 0 -5 -9 -10 -20 -10 -11 0 -20 -4 -20 -10 0 -5 -9 -10 -20 -10
-11 0 -20 -4 -20 -10 0 -5 -9 -10 -20 -10 -11 0 -20 -4 -20 -10 0 -5 -9 -10
-20 -10 -11 0 -20 -4 -20 -10 0 -5 -7 -10 -15 -10 -20 0 -65 -45 -65 -65 0 -8
-4 -15 -10 -15 -5 0 -10 -18 -10 -40 0 -22 5 -40 10 -40 6 0 10 -13 10 -30 0
-16 -4 -30 -10 -30 -5 0 -10 -8 -10 -18 0 -10 -9 -24 -20 -32 -11 -8 -20 -22
-20 -32 0 -10 -4 -18 -10 -18 -5 0 -10 -8 -10 -18 0 -10 -9 -24 -20 -32 -12
-8 -20 -26 -20 -42 0 -15 -4 -28 -10 -28 -5 0 -10 -9 -10 -20 0 -11 -4 -20
-10 -20 -5 0 -10 -13 -10 -30 0 -16 -4 -30 -10 -30 -5 0 -10 -18 -10 -40 0
-22 -4 -40 -10 -40 -6 0 -10 -30 -10 -70 0 -40 -4 -70 -10 -70 -5 0 -10 -18
-10 -40 0 -22 5 -40 10 -40 6 0 10 -30 10 -70 0 -40 4 -70 10 -70 6 0 10 -9
10 -20 0 -11 5 -20 10 -20 6 0 10 -9 10 -20 0 -11 5 -20 10 -20 6 0 10 -7 10
-15 0 -20 45 -65 65 -65 11 0 15 -12 15 -50 0 -27 -4 -50 -10 -50 -5 0 -10
-13 -10 -30 0 -16 -4 -30 -10 -30 -5 0 -10 -13 -10 -30 0 -16 -4 -30 -10 -30
-5 0 -10 -13 -10 -30 0 -16 -4 -30 -10 -30 -5 0 -10 -8 -10 -18 0 -10 -9 -24
-20 -32 -11 -8 -20 -21 -20 -30 0 -9 -9 -22 -20 -30 -11 -8 -20 -21 -20 -28 0
-8 -13 -27 -30 -42 -16 -15 -30 -33 -30 -39 0 -16 -187 -201 -203 -201 -7 0
-19 -9 -27 -20 -8 -11 -21 -20 -28 -20 -8 0 -27 -13 -42 -30 -15 -16 -34 -30
-42 -30 -7 0 -20 -9 -28 -20 -8 -11 -21 -20 -30 -20 -9 0 -22 -9 -30 -20 -8
-11 -21 -20 -30 -20 -9 0 -22 -9 -30 -20 -8 -11 -22 -20 -32 -20 -10 0 -18 -4
-18 -10 0 -5 -9 -10 -20 -10 -11 0 -20 -4 -20 -10 0 -5 -8 -10 -18 -10 -10 0
-24 -9 -32 -20 -8 -11 -26 -20 -40 -20 -14 0 -32 -9 -40 -20 -8 -11 -22 -20
-32 -20 -10 0 -18 -4 -18 -10 0 -5 -9 -10 -19 -10 -11 0 -21 -6 -23 -12 -3 -8
-26 9 -56 40 -28 28 -58 52 -66 52 -9 0 -16 5 -16 10 0 6 -7 10 -16 10 -9 0
-29 14 -44 30 -15 17 -33 30 -39 30 -15 0 -241 226 -241 241 0 6 -14 24 -30
39 -17 15 -30 35 -30 44 0 9 -4 16 -10 16 -5 0 -10 7 -10 16 0 9 -13 29 -30
44 -16 15 -30 35 -30 44 0 9 -4 16 -10 16 -5 0 -10 9 -10 20 0 11 -4 20 -10
20 -5 0 -10 9 -10 20 0 11 -4 20 -10 20 -5 0 -10 9 -10 20 0 11 -4 20 -10 20
-5 0 -10 9 -10 20 0 11 -4 20 -10 20 -5 0 -10 9 -10 20 0 11 -4 20 -10 20 -5
0 -10 9 -10 20 0 11 -4 20 -10 20 -5 0 -10 14 -10 30 0 17 -4 30 -10 30 -5 0
-10 14 -10 30 0 17 -4 30 -10 30 -5 0 -10 14 -10 30 0 17 -4 30 -10 30 -5 0
-10 14 -10 30 0 17 -4 30 -10 30 -5 0 -10 23 -10 50 0 38 4 50 15 50 25 0 65
46 65 75 0 14 5 25 10 25 6 0 10 18 10 40 0 22 5 40 10 40 6 0 10 40 10 100 0
60 -4 100 -10 100 -6 0 -10 33 -10 80 0 47 -4 80 -10 80 -5 0 -10 18 -10 40 0
22 -4 40 -10 40 -5 0 -10 14 -10 30 0 17 -4 30 -10 30 -5 0 -10 8 -10 18 0 10
-9 24 -20 32 -11 8 -20 22 -20 32 0 10 -4 18 -10 18 -5 0 -10 11 -10 25 0 29
-79 115 -105 115 -8 0 -15 5 -15 10 0 6 -9 10 -20 10 -11 0 -20 5 -20 10 0 6
-13 10 -30 10 -16 0 -30 5 -30 10 0 6 -13 10 -30 10 -16 0 -30 5 -30 10 0 6
-9 10 -20 10 -11 0 -20 5 -20 10 0 6 -9 10 -20 10 -11 0 -20 5 -20 10 0 6 -13
10 -30 10 -16 0 -30 5 -30 10 0 6 -9 10 -20 10 -11 0 -20 5 -20 10 0 6 -9 10
-20 10 -11 0 -20 5 -20 10 0 6 -9 10 -20 10 -11 0 -20 5 -20 10 0 6 -9 10 -20
10 -11 0 -20 5 -20 10 0 6 -13 10 -28 10 -16 0 -34 8 -42 20 -8 11 -21 20 -30
20 -9 0 -22 9 -30 20 -8 11 -22 20 -32 20 -10 0 -18 5 -18 10 0 6 -8 10 -18
10 -10 0 -24 9 -32 20 -8 11 -21 20 -28 20 -8 0 -27 14 -42 30 -15 17 -33 30
-39 30 -17 0 -101 87 -101 105 0 8 -9 15 -20 15 -11 0 -20 7 -20 16 0 8 -27
42 -60 74 -33 32 -60 66 -60 74 0 9 -4 16 -10 16 -5 0 -10 7 -10 16 0 8 -18
33 -40 54 -22 21 -40 44 -40 50 0 7 -13 25 -30 40 -16 15 -30 34 -30 42 0 7
-9 20 -20 28 -11 8 -20 21 -20 30 0 9 -9 22 -20 30 -11 8 -20 21 -20 30 0 9
-9 22 -20 30 -11 8 -20 21 -20 30 0 9 -9 22 -20 30 -11 8 -20 22 -20 32 0 10
-4 18 -10 18 -5 0 -10 8 -10 18 0 10 -9 24 -20 32 -11 8 -20 21 -20 30 0 9 -9
22 -20 30 -11 8 -20 22 -20 32 0 10 -4 18 -10 18 -5 0 -10 9 -10 20 0 11 -4
20 -10 20 -5 0 -10 9 -10 20 0 11 -4 20 -10 20 -5 0 -10 9 -10 20 0 11 -4 20
-10 20 -5 0 -10 8 -10 18 0 10 -9 24 -20 32 -11 8 -20 22 -20 32 0 10 -4 18
-10 18 -5 0 -10 9 -10 20 0 11 -4 20 -10 20 -5 0 -10 9 -10 20 0 11 -4 20 -10
20 -5 0 -10 9 -10 20 0 11 -4 20 -10 20 -5 0 -10 9 -10 20 0 11 -4 20 -10 20
-5 0 -10 9 -10 20 0 11 -4 20 -10 20 -5 0 -10 14 -10 30 0 17 -4 30 -10 30 -5
0 -10 9 -10 20 0 11 -4 20 -10 20 -5 0 -10 14 -10 30 0 17 -4 30 -10 30 -5 0
-10 14 -10 30 0 17 -4 30 -10 30 -5 0 -10 14 -10 30 0 17 -4 30 -10 30 -5 0
-10 18 -10 40 0 22 -4 40 -10 40 -5 0 -10 18 -10 40 0 22 -4 40 -10 40 -5 0
-10 23 -10 50 0 28 -4 50 -10 50 -6 0 -10 33 -10 80 0 47 -4 80 -10 80 -6 0
-10 33 -10 80 0 47 -4 80 -10 80 -6 0 -10 53 -10 140 0 87 -4 140 -10 140 -6
0 -10 73 -10 200 0 127 4 200 10 200 6 0 10 23 10 50 0 28 5 50 10 50 6 0 10
43 10 110 0 67 4 110 10 110 6 0 10 23 10 50 0 28 5 50 10 50 6 0 10 23 10 50
0 28 5 50 10 50 6 0 10 18 10 40 0 22 5 40 10 40 6 0 10 30 10 70 0 40 4 70
10 70 6 0 10 27 10 60 0 33 4 60 10 60 6 0 10 33 10 80 0 47 4 80 10 80 6 0
10 18 10 40 0 22 5 40 10 40 6 0 10 47 10 120 0 73 4 120 10 120 6 0 10 33 10
80 0 47 4 80 10 80 6 0 10 37 10 90 0 53 4 90 10 90 6 0 10 27 10 60 0 33 4
60 10 60 6 0 10 18 10 40 0 22 5 40 10 40 6 0 10 23 10 50 0 28 5 50 10 50 6
0 10 18 10 40 0 22 5 40 10 40 6 0 10 18 10 40 0 22 5 40 10 40 6 0 10 14 10
30 0 17 5 30 10 30 6 0 10 18 10 40 0 22 5 40 10 40 6 0 10 14 10 30 0 17 5
30 10 30 6 0 10 9 10 20 0 11 5 20 10 20 6 0 10 14 10 30 0 17 5 30 10 30 6 0
10 14 10 30 0 17 5 30 10 30 6 0 10 9 10 20 0 11 5 20 10 20 6 0 10 9 10 20 0
11 5 20 10 20 6 0 10 9 10 20 0 11 5 20 10 20 6 0 10 9 10 20 0 11 5 20 10 20
6 0 10 8 10 18 0 10 9 24 20 32 11 8 20 22 20 32 0 10 5 18 10 18 6 0 10 8 10
18 0 10 9 24 20 32 11 8 20 21 20 28 0 8 14 27 30 42 17 15 30 33 30 40 0 7
14 25 30 40 17 15 30 33 30 39 0 7 36 47 80 91 44 44 80 84 80 90 0 6 32 42
70 80 39 38 70 74 70 81 0 6 14 24 30 39 17 15 30 35 30 44 0 9 5 16 10 16 6
0 10 9 10 20 0 11 5 20 10 20 6 0 10 20 10 45 0 54 33 95 75 95 14 0 25 5 25
10 0 6 18 10 40 10 22 0 40 5 40 10 0 6 23 10 50 10 28 0 50 5 50 10 0 6 73
10 200 10 127 0 200 -4 200 -10z m4555 -3255 c29 -28 31 -35 9 -35 -20 0 -44
24 -44 44 0 22 7 20 35 -9z m-60 -280 c14 -13 25 -31 25 -40 0 -8 5 -15 10
-15 6 0 10 -8 10 -18 0 -10 9 -24 20 -32 12 -8 20 -26 20 -42 0 -15 5 -28 10
-28 6 0 10 -13 10 -30 0 -16 5 -30 10 -30 6 0 10 -13 10 -30 0 -16 5 -30 10
-30 6 0 10 -30 10 -70 0 -40 4 -70 10 -70 15 0 13 -177 -2 -183 -10 -4 -10 -8
1 -15 12 -9 11 -13 -4 -29 -13 -13 -20 -14 -23 -5 -2 7 -21 12 -43 12 -21 0
-39 5 -39 10 0 6 -43 10 -110 10 -67 0 -110 -4 -110 -10 0 -5 -9 -10 -20 -10
-18 0 -20 7 -20 60 0 33 4 60 10 60 6 0 10 93 10 260 0 243 1 260 18 260 10 0
24 9 32 20 22 31 113 28 145 -5z m145 -735 c0 -11 -4 -20 -10 -20 -5 0 -10
-18 -10 -40 0 -22 -4 -40 -10 -40 -5 0 -10 -18 -10 -40 0 -22 -4 -40 -10 -40
-5 0 -10 -13 -10 -30 0 -16 -4 -30 -10 -30 -5 0 -10 -13 -10 -30 0 -16 -4 -30
-10 -30 -5 0 -10 -9 -10 -20 0 -11 -4 -20 -10 -20 -5 0 -10 -9 -10 -20 0 -11
-4 -20 -10 -20 -5 0 -10 -9 -10 -20 0 -11 -4 -20 -10 -20 -5 0 -10 -8 -10 -18
0 -10 -9 -24 -20 -32 -11 -8 -20 -20 -20 -28 0 -17 -45 -62 -62 -62 -8 0 -20
-9 -28 -20 -8 -12 -26 -20 -42 -20 -15 0 -28 -4 -28 -10 0 -5 -18 -10 -40 -10
l-40 0 0 50 c0 28 5 50 10 50 6 0 10 27 10 60 0 33 4 60 10 60 6 0 10 33 10
80 0 47 4 80 10 80 6 0 10 18 10 40 l0 40 40 0 c22 0 40 5 40 10 0 6 9 10 20
10 11 0 20 5 20 10 0 6 8 10 18 10 10 0 24 9 32 20 8 11 21 20 30 20 9 0 22 9
30 20 8 11 22 20 32 20 10 0 18 5 18 10 0 6 8 10 18 10 10 0 24 9 32 20 8 11
22 20 32 20 11 0 18 -7 18 -20z"/>
<path d="M5420 9010 c0 -5 -18 -10 -40 -10 -22 0 -40 -4 -40 -10 0 -5 -9 -10
-20 -10 -11 0 -20 -4 -20 -10 0 -5 -9 -10 -20 -10 -11 0 -20 -4 -20 -10 0 -5
-9 -10 -20 -10 -11 0 -20 -4 -20 -10 0 -5 -9 -10 -20 -10 -12 0 -20 -7 -20
-16 0 -8 -18 -33 -40 -54 -22 -21 -40 -46 -40 -54 0 -9 -4 -16 -10 -16 -5 0
-10 -8 -10 -18 0 -10 -9 -24 -20 -32 -11 -8 -20 -18 -20 -22 0 -4 36 -8 80 -8
47 0 80 4 80 10 0 6 33 10 80 10 47 0 80 4 80 10 0 6 33 10 80 10 47 0 80 -4
80 -10 0 -5 18 -10 40 -10 22 0 40 -4 40 -10 0 -6 33 -10 80 -10 47 0 80 -4
80 -10 0 -6 30 -10 70 -10 40 0 70 -4 70 -10 0 -6 30 -10 70 -10 40 0 70 -4
70 -10 0 -5 18 -10 40 -10 22 0 40 -4 40 -10 0 -6 28 -10 65 -10 57 0 69 3 90
25 22 21 25 33 25 90 0 37 -4 65 -10 65 -5 0 -10 9 -10 20 0 13 -7 20 -20 20
-11 0 -20 5 -20 10 0 6 -9 10 -20 10 -11 0 -20 5 -20 10 0 6 -18 10 -40 10
-22 0 -40 5 -40 10 0 6 -18 10 -40 10 -22 0 -40 5 -40 10 0 6 -18 10 -40 10
-22 0 -40 5 -40 10 0 6 -13 10 -30 10 -16 0 -30 5 -30 10 0 6 -13 10 -30 10
-16 0 -30 5 -30 10 0 6 -27 10 -60 10 -33 0 -60 4 -60 10 0 6 -27 10 -60 10
-33 0 -60 4 -60 10 0 6 -37 10 -90 10 -53 0 -90 -4 -90 -10z"/>
<path d="M8780 8810 c0 -6 -43 -10 -110 -10 -67 0 -110 -4 -110 -10 0 -5 -18
-10 -40 -10 -22 0 -40 -4 -40 -10 0 -5 -12 -10 -26 -10 -29 0 -54 -21 -54 -44
0 -9 -4 -16 -10 -16 -5 0 -10 -22 -10 -50 0 -27 5 -50 10 -50 6 0 10 -9 10
-20 0 -17 7 -20 39 -20 22 0 42 -6 45 -12 5 -10 7 -10 12 0 7 15 384 18 384 2
0 -6 33 -10 80 -10 47 0 80 4 80 10 0 6 18 10 40 10 22 0 40 -4 40 -10 0 -5
23 -10 50 -10 28 0 50 -4 50 -10 0 -6 30 -10 70 -10 40 0 70 -4 70 -10 0 -5
18 -10 40 -10 22 0 40 -4 40 -10 0 -5 9 -10 20 -10 17 0 20 7 20 40 0 22 -4
40 -10 40 -5 0 -10 9 -10 20 0 11 -4 20 -10 20 -5 0 -10 9 -10 20 0 11 -4 20
-10 20 -5 0 -10 7 -10 16 0 18 -23 44 -40 44 -6 0 -29 18 -50 40 -21 22 -46
40 -54 40 -9 0 -16 5 -16 10 0 6 -13 10 -30 10 -16 0 -30 5 -30 10 0 6 -77 10
-210 10 -133 0 -210 -4 -210 -10z"/>
<path d="M5680 8050 c0 -5 -18 -10 -40 -10 -22 0 -40 -4 -40 -10 0 -5 -9 -10
-20 -10 -11 0 -20 -4 -20 -10 0 -5 -7 -10 -15 -10 -20 0 -125 -105 -125 -125
0 -8 -4 -15 -10 -15 -5 0 -10 -8 -10 -18 0 -10 -9 -24 -20 -32 -12 -8 -20 -26
-20 -42 0 -15 -4 -28 -10 -28 -5 0 -10 -18 -10 -40 0 -22 -4 -40 -10 -40 -6 0
-10 -47 -10 -120 0 -73 4 -120 10 -120 6 0 10 -18 10 -40 0 -22 5 -40 10 -40
6 0 10 -13 10 -30 0 -16 5 -30 10 -30 6 0 10 -8 10 -18 0 -10 9 -24 20 -32 12
-8 20 -26 20 -42 0 -21 5 -28 20 -28 11 0 20 -7 20 -15 0 -20 65 -85 85 -85 8
0 15 -4 15 -10 0 -5 9 -10 20 -10 11 0 20 -4 20 -10 0 -5 14 -10 30 -10 17 0
30 -4 30 -10 0 -6 33 -10 80 -10 47 0 80 4 80 10 0 6 13 10 28 10 16 0 34 8
42 20 8 11 20 20 27 20 19 0 123 106 123 125 0 8 5 15 10 15 6 0 10 9 10 20 0
11 5 20 10 20 6 0 10 9 10 20 0 11 5 20 10 20 6 0 10 9 10 20 0 11 5 20 10 20
6 0 10 33 10 80 0 47 4 80 10 80 6 0 10 27 10 60 0 33 -4 60 -10 60 -5 0 -10
18 -10 40 0 22 -4 40 -10 40 -5 0 -10 14 -10 30 0 17 -4 30 -10 30 -5 0 -10
14 -10 30 0 17 -4 30 -10 30 -5 0 -10 8 -10 18 0 10 -9 24 -20 32 -11 8 -20
20 -20 27 0 8 -20 34 -45 58 -24 25 -50 45 -58 45 -7 0 -19 9 -27 20 -8 11
-22 20 -32 20 -10 0 -18 5 -18 10 0 6 -27 10 -60 10 -33 0 -60 4 -60 10 0 6
-9 10 -20 10 -11 0 -20 -4 -20 -10z m266 -704 c16 -16 19 -86 4 -86 -5 0 -10
-9 -10 -20 0 -13 -7 -20 -20 -20 -11 0 -20 -4 -20 -10 0 -15 -29 -12 -46 4 -8
8 -14 22 -14 30 0 9 -4 16 -10 16 -5 0 -10 9 -10 20 0 11 5 20 10 20 6 0 10 7
10 15 0 41 74 62 106 31z"/>
<path d="M8820 8050 c0 -5 -13 -10 -30 -10 -16 0 -30 -4 -30 -10 0 -5 -9 -10
-20 -10 -11 0 -20 -4 -20 -10 0 -5 -7 -10 -15 -10 -9 0 -45 -29 -80 -65 -36
-35 -65 -71 -65 -80 0 -8 -4 -15 -10 -15 -5 0 -10 -9 -10 -20 0 -11 -4 -20
-10 -20 -5 0 -10 -13 -10 -30 0 -16 -4 -30 -10 -30 -5 0 -10 -22 -10 -50 0
-27 -4 -50 -10 -50 -6 0 -10 -40 -10 -100 0 -60 4 -100 10 -100 6 0 10 -18 10
-40 0 -22 5 -40 10 -40 6 0 10 -13 10 -30 0 -16 5 -30 10 -30 6 0 10 -9 10
-20 0 -11 5 -20 10 -20 6 0 10 -13 10 -28 0 -16 8 -34 20 -42 11 -8 20 -22 20
-32 0 -11 7 -18 20 -18 13 0 20 -7 20 -20 0 -12 7 -20 16 -20 9 0 29 -13 44
-30 15 -16 35 -30 44 -30 9 0 16 -4 16 -10 0 -5 14 -10 30 -10 17 0 30 -4 30
-10 0 -6 37 -10 90 -10 53 0 90 4 90 10 0 6 9 10 20 10 11 0 20 5 20 10 0 6 9
10 20 10 11 0 20 5 20 10 0 6 9 10 20 10 13 0 20 7 20 20 0 12 7 20 16 20 19
0 44 24 44 42 0 8 9 20 20 28 11 8 20 22 20 32 0 10 5 18 10 18 6 0 10 9 10
20 0 11 5 20 10 20 6 0 10 14 10 30 0 17 5 30 10 30 6 0 10 18 10 40 0 22 5
40 10 40 6 0 10 47 10 120 0 73 -4 120 -10 120 -5 0 -10 14 -10 30 0 17 -4 30
-10 30 -5 0 -10 14 -10 30 0 17 -4 30 -10 30 -5 0 -10 9 -10 20 0 11 -4 20
-10 20 -5 0 -10 9 -10 20 0 11 -4 20 -10 20 -5 0 -10 7 -10 15 0 9 -29 45 -65
80 -35 36 -71 65 -80 65 -8 0 -15 5 -15 10 0 6 -9 10 -20 10 -11 0 -20 5 -20
10 0 6 -18 10 -40 10 -22 0 -40 5 -40 10 0 6 -22 10 -50 10 -27 0 -50 -4 -50
-10z m286 -704 c16 -17 20 -106 4 -106 -5 0 -10 -9 -10 -20 0 -17 -7 -20 -50
-20 l-50 0 0 56 c0 57 14 84 44 84 9 0 16 5 16 10 0 15 29 12 46 -4z"/>
<path d="M7560 5890 c0 -6 -33 -10 -80 -10 -47 0 -80 -4 -80 -10 0 -6 -53 -10
-140 -10 -87 0 -140 4 -140 10 0 6 -33 10 -80 10 -47 0 -80 -4 -80 -10 0 -6
-30 -10 -70 -10 -38 0 -70 -2 -70 -5 0 -13 71 -75 85 -75 8 0 15 -4 15 -10 0
-5 9 -10 20 -10 11 0 20 -4 20 -10 0 -5 14 -10 30 -10 17 0 30 -4 30 -10 0 -5
23 -10 50 -10 28 0 50 -4 50 -10 0 -6 60 -10 160 -10 100 0 160 4 160 10 0 6
27 10 60 10 33 0 60 4 60 10 0 6 14 10 30 10 17 0 30 5 30 10 0 6 13 10 28 10
16 0 34 8 42 20 8 11 20 20 28 20 24 0 42 28 42 64 l0 36 -100 0 c-60 0 -100
-4 -100 -10z"/>
<path d="M2893 4565 c-19 -20 -16 -35 10 -58 15 -13 18 -21 10 -24 -10 -4 -13
-50 -13 -184 0 -113 -4 -179 -10 -179 -6 0 -10 -40 -10 -100 0 -60 -4 -100
-10 -100 -5 0 -10 -9 -10 -20 0 -11 5 -20 10 -20 6 0 10 -9 10 -20 0 -11 5
-20 10 -20 6 0 10 -9 10 -20 0 -13 7 -20 18 -20 10 0 24 -9 32 -20 12 -17 26
-20 82 -20 39 0 68 -4 68 -10 0 -5 -4 -10 -10 -10 -5 0 -10 -4 -10 -10 0 -5 9
-10 20 -10 11 0 20 5 20 10 0 6 14 10 30 10 17 0 30 5 30 10 0 6 37 10 90 10
83 0 90 1 90 20 0 11 5 20 10 20 6 0 10 16 10 35 0 30 -9 45 -55 90 l-55 55
-65 0 c-37 0 -65 -4 -65 -10 0 -5 -13 -10 -30 -10 l-30 0 0 130 c0 80 4 130
10 130 6 0 10 37 10 90 0 53 4 90 10 90 6 0 10 25 10 55 0 46 -4 60 -25 80
-13 14 -31 25 -40 25 -8 0 -15 5 -15 10 0 16 -133 12 -147 -5z"/>
<path d="M4400 4570 c0 -5 -9 -10 -20 -10 -11 0 -20 -4 -20 -10 0 -5 -9 -10
-20 -10 -11 0 -20 -4 -20 -10 0 -5 -9 -10 -20 -10 -29 0 -26 -45 5 -75 18 -19
35 -25 70 -25 25 0 45 5 45 10 0 6 11 10 25 10 31 0 75 41 75 70 0 25 -22 50
-44 50 -9 0 -16 5 -16 10 0 6 -13 10 -30 10 -16 0 -30 -4 -30 -10z"/>
<path d="M4323 4375 c-24 -25 -31 -55 -13 -55 6 0 10 -70 10 -190 0 -120 -4
-190 -10 -190 -5 0 -10 -25 -10 -55 0 -50 3 -59 35 -90 29 -30 41 -35 80 -35
38 0 45 3 45 20 0 11 5 20 10 20 6 0 10 33 10 80 0 47 -4 80 -10 80 -6 0 -10
43 -10 110 0 67 4 110 10 110 6 0 10 22 10 49 0 30 5 52 13 55 10 5 10 7 0 12
-7 3 -13 14 -13 25 0 11 -7 19 -16 19 -9 0 -29 14 -44 30 -34 36 -67 38 -97 5z"/>
<path d="M3600 4330 c0 -5 -9 -10 -20 -10 -11 0 -20 -4 -20 -10 0 -5 -9 -10
-20 -10 -11 0 -20 -4 -20 -10 0 -5 -7 -10 -15 -10 -25 0 -65 -46 -65 -75 0
-14 -4 -25 -10 -25 -5 0 -10 -13 -10 -30 0 -16 -4 -30 -10 -30 -6 0 -10 -33
-10 -80 0 -47 4 -80 10 -80 6 0 10 -13 10 -30 0 -16 5 -30 10 -30 6 0 10 -7
10 -15 0 -26 86 -105 115 -105 14 0 25 -4 25 -10 0 -6 27 -10 60 -10 33 0 60
4 60 10 0 6 7 10 16 10 20 0 44 24 44 44 0 9 8 16 20 16 17 0 20 7 20 50 0 43
-3 50 -20 50 -11 0 -20 -4 -20 -10 0 -5 -13 -10 -30 -10 -16 0 -30 -4 -30 -10
0 -5 -18 -10 -40 -10 -22 0 -40 5 -40 10 0 6 -7 10 -16 10 -20 0 -44 24 -44
44 0 9 8 16 20 16 11 0 20 5 20 10 0 6 18 10 40 10 22 0 40 5 40 10 0 6 18 10
40 10 22 0 40 5 40 10 0 6 7 10 16 10 20 0 44 24 44 43 0 9 6 18 13 21 10 5
10 7 0 12 -7 3 -13 19 -13 35 0 16 -4 29 -10 29 -5 0 -10 14 -10 30 0 17 -4
30 -10 30 -5 0 -10 7 -10 16 0 20 -24 44 -44 44 -9 0 -16 5 -16 10 0 6 -13 10
-30 10 -16 0 -30 5 -30 10 0 6 -13 10 -30 10 -16 0 -30 -4 -30 -10z m66 -124
c8 -8 14 -26 14 -40 0 -24 -4 -26 -40 -26 -22 0 -40 -4 -40 -10 0 -5 -13 -10
-30 -10 -23 0 -30 4 -30 20 0 11 5 20 10 20 6 0 10 9 10 20 0 13 7 20 20 20
11 0 20 5 20 10 0 15 49 12 66 -4z"/>
<path d="M3860 4310 c0 -5 -9 -10 -20 -10 -16 0 -20 -7 -20 -30 0 -16 5 -30
10 -30 6 0 10 -18 10 -40 0 -22 5 -40 10 -40 6 0 10 -18 10 -40 0 -22 5 -40
10 -40 6 0 10 -18 10 -40 0 -22 5 -40 10 -40 6 0 10 -18 10 -40 0 -22 5 -40
10 -40 6 0 10 -22 10 -50 0 -27 5 -50 10 -50 6 0 10 -7 10 -16 0 -29 27 -44
80 -44 61 0 80 15 80 64 0 20 5 36 10 36 6 0 10 14 10 30 0 17 5 30 10 30 6 0
10 18 10 40 0 22 5 40 10 40 6 0 10 14 10 30 0 17 5 30 10 30 6 0 10 14 10 30
0 17 5 30 10 30 6 0 10 9 10 20 0 11 5 20 10 20 6 0 10 9 10 20 0 11 5 20 10
20 6 0 10 9 10 20 0 11 5 20 10 20 15 0 12 49 -4 66 -17 16 -126 20 -126 4 0
-5 -9 -10 -20 -10 -11 0 -20 -4 -20 -10 0 -5 5 -10 10 -10 6 0 10 -18 10 -40
0 -22 -4 -40 -10 -40 -5 0 -10 -9 -10 -20 0 -11 -4 -20 -10 -20 -5 0 -10 -13
-10 -30 0 -16 -4 -30 -10 -30 -5 0 -10 -12 -10 -26 0 -23 -20 -54 -34 -54 -3
0 -6 18 -6 40 0 22 -4 40 -10 40 -5 0 -10 23 -10 50 0 28 -4 50 -10 50 -5 0
-10 23 -10 50 0 43 -3 50 -20 50 -11 0 -20 5 -20 10 0 6 -13 10 -30 10 -16 0
-30 -4 -30 -10z"/>
</g>
</svg>
